<mxfile host="Electron" agent="Mozilla/5.0 (X11; Linux x86_64) AppleWebKit/537.36 (KHTML, like Gecko) draw.io/26.1.1 Chrome/132.0.6834.210 Electron/34.3.3 Safari/537.36" version="26.1.1">
  <diagram name="Seite-1" id="1JY7WErbMt_rOy9yI9s0">
    <mxGraphModel dx="1041" dy="738" grid="0" gridSize="10" guides="1" tooltips="1" connect="1" arrows="1" fold="1" page="1" pageScale="1" pageWidth="827" pageHeight="1169" math="0" shadow="0">
      <root>
        <mxCell id="0" />
        <mxCell id="1" parent="0" />
        <mxCell id="4X50xtnjbPUyoNeQzGnV-13" value="" style="rounded=1;whiteSpace=wrap;html=1;strokeWidth=3;strokeColor=#8C4FFF;" vertex="1" parent="1">
          <mxGeometry x="163" y="720" width="423" height="139" as="geometry" />
        </mxCell>
        <mxCell id="4X50xtnjbPUyoNeQzGnV-6" value="Prefix&lt;div&gt;Delegation (PD):&lt;br&gt;3fff:abcd:dcba:abd0::/60&lt;/div&gt;" style="edgeStyle=orthogonalEdgeStyle;rounded=0;orthogonalLoop=1;jettySize=auto;html=1;horizontal=0;" edge="1" parent="1">
          <mxGeometry relative="1" as="geometry">
            <mxPoint x="388" y="259" as="sourcePoint" />
            <mxPoint x="388" y="429" as="targetPoint" />
            <Array as="points">
              <mxPoint x="388" y="389" />
              <mxPoint x="388" y="389" />
            </Array>
          </mxGeometry>
        </mxCell>
        <mxCell id="4X50xtnjbPUyoNeQzGnV-1" value="ISP&lt;div&gt;3fff:abcd:0:0::/32&lt;/div&gt;" style="ellipse;shape=cloud;whiteSpace=wrap;html=1;" vertex="1" parent="1">
          <mxGeometry x="260" y="150" width="214" height="110" as="geometry" />
        </mxCell>
        <mxCell id="4X50xtnjbPUyoNeQzGnV-2" value="Home Router&lt;div&gt;&lt;br&gt;&lt;/div&gt;" style="sketch=0;outlineConnect=0;fontColor=#232F3E;gradientColor=none;fillColor=#8C4FFF;strokeColor=none;dashed=0;verticalLabelPosition=bottom;verticalAlign=top;align=center;html=1;fontSize=12;fontStyle=0;aspect=fixed;pointerEvents=1;shape=mxgraph.aws4.customer_gateway;" vertex="1" parent="1">
          <mxGeometry x="320" y="430" width="78" height="78" as="geometry" />
        </mxCell>
        <mxCell id="4X50xtnjbPUyoNeQzGnV-5" value="Request&lt;div&gt;Prefix&lt;/div&gt;" style="edgeStyle=orthogonalEdgeStyle;rounded=0;orthogonalLoop=1;jettySize=auto;html=1;entryX=0.463;entryY=0.91;entryDx=0;entryDy=0;entryPerimeter=0;horizontal=0;" edge="1" parent="1">
          <mxGeometry relative="1" as="geometry">
            <mxPoint x="324" y="430" as="sourcePoint" />
            <mxPoint x="324.0819999999999" y="250.0999999999999" as="targetPoint" />
          </mxGeometry>
        </mxCell>
        <mxCell id="4X50xtnjbPUyoNeQzGnV-9" value="" style="sketch=0;outlineConnect=0;fontColor=#232F3E;gradientColor=none;fillColor=#8C4FFF;strokeColor=none;dashed=0;verticalLabelPosition=bottom;verticalAlign=top;align=center;html=1;fontSize=12;fontStyle=0;aspect=fixed;pointerEvents=1;shape=mxgraph.aws4.router;" vertex="1" parent="1">
          <mxGeometry x="335" y="726" width="48" height="48" as="geometry" />
        </mxCell>
        <mxCell id="4X50xtnjbPUyoNeQzGnV-10" value="" style="html=1;verticalLabelPosition=bottom;verticalAlign=top;outlineConnect=0;shadow=0;dashed=0;shape=mxgraph.rack.hpe_aruba.switches.rj45_sfp_alt;strokeColor=#8C4FFF;" vertex="1" parent="1">
          <mxGeometry x="198" y="832" width="30" height="25" as="geometry" />
        </mxCell>
        <mxCell id="4X50xtnjbPUyoNeQzGnV-11" value="" style="html=1;verticalLabelPosition=bottom;verticalAlign=top;outlineConnect=0;shadow=0;dashed=0;shape=mxgraph.rack.hpe_aruba.switches.rj45_sfp_alt;" vertex="1" parent="1">
          <mxGeometry x="490" y="831" width="30" height="25" as="geometry" />
        </mxCell>
        <mxCell id="4X50xtnjbPUyoNeQzGnV-14" value="PD:&lt;br&gt;3fff:abcd:dcba:abdc::/62" style="edgeStyle=orthogonalEdgeStyle;rounded=0;orthogonalLoop=1;jettySize=auto;html=1;horizontal=0;" edge="1" parent="1">
          <mxGeometry relative="1" as="geometry">
            <mxPoint x="388" y="548" as="sourcePoint" />
            <mxPoint x="388" y="718" as="targetPoint" />
            <Array as="points">
              <mxPoint x="388" y="678" />
              <mxPoint x="388" y="678" />
            </Array>
          </mxGeometry>
        </mxCell>
        <mxCell id="4X50xtnjbPUyoNeQzGnV-15" value="Request&lt;div&gt;Prefix /62&lt;/div&gt;" style="edgeStyle=orthogonalEdgeStyle;rounded=0;orthogonalLoop=1;jettySize=auto;html=1;entryX=0.463;entryY=0.91;entryDx=0;entryDy=0;entryPerimeter=0;horizontal=0;" edge="1" parent="1">
          <mxGeometry relative="1" as="geometry">
            <mxPoint x="324" y="719" as="sourcePoint" />
            <mxPoint x="324.0819999999999" y="539.0999999999999" as="targetPoint" />
          </mxGeometry>
        </mxCell>
        <mxCell id="4X50xtnjbPUyoNeQzGnV-17" value="Request&lt;br&gt;1st Prefix" style="endArrow=classic;html=1;rounded=0;" edge="1" parent="1">
          <mxGeometry width="50" height="50" relative="1" as="geometry">
            <mxPoint x="205.99999999999977" y="814.791095890411" as="sourcePoint" />
            <mxPoint x="313" y="745.5342465753424" as="targetPoint" />
          </mxGeometry>
        </mxCell>
        <mxCell id="4X50xtnjbPUyoNeQzGnV-18" value="PD:&lt;div&gt;3fff:abcd:dcb:abdc::/64&lt;/div&gt;" style="endArrow=classic;html=1;rounded=0;horizontal=1;" edge="1" parent="1">
          <mxGeometry width="50" height="50" relative="1" as="geometry">
            <mxPoint x="344" y="775.5342465753424" as="sourcePoint" />
            <mxPoint x="236.99999999999977" y="844.791095890411" as="targetPoint" />
          </mxGeometry>
        </mxCell>
        <mxCell id="4X50xtnjbPUyoNeQzGnV-21" value="PD:&lt;div&gt;3fff:abcd:dcb:abdd::/64&lt;/div&gt;" style="endArrow=classic;html=1;rounded=0;horizontal=1;" edge="1" parent="1">
          <mxGeometry width="50" height="50" relative="1" as="geometry">
            <mxPoint x="375.99999999999955" y="775.5342465753424" as="sourcePoint" />
            <mxPoint x="482.9999999999998" y="844.791095890411" as="targetPoint" />
          </mxGeometry>
        </mxCell>
        <mxCell id="4X50xtnjbPUyoNeQzGnV-22" value="Request&lt;br&gt;2nd Prefix" style="endArrow=classic;html=1;rounded=0;" edge="1" parent="1">
          <mxGeometry width="50" height="50" relative="1" as="geometry">
            <mxPoint x="502.9999999999998" y="814.791095890411" as="sourcePoint" />
            <mxPoint x="395.99999999999955" y="745.5342465753424" as="targetPoint" />
          </mxGeometry>
        </mxCell>
      </root>
    </mxGraphModel>
  </diagram>
</mxfile>
